<!DOCTYPE svg PUBLIC "-//W3C//DTD SVG 1.1//EN" "http://www.w3.org/Graphics/SVG/1.1/DTD/svg11.dtd">
<!-- Uploaded to: SVG Repo, www.svgrepo.com, Transformed by: SVG Repo Mixer Tools -->
<svg height="800px" width="800px" version="1.1" id="Layer_1" xmlns="http://www.w3.org/2000/svg" xmlns:xlink="http://www.w3.org/1999/xlink" viewBox="0 0 510.569 510.569" xml:space="preserve" fill="#000000">
<g id="SVGRepo_bgCarrier" stroke-width="0"/>
<g id="SVGRepo_tracerCarrier" stroke-linecap="round" stroke-linejoin="round"/>
<g id="SVGRepo_iconCarrier"> <g> <path style="fill:#E8EDEE;" d="M415.294,108.03c-2.299,0-4.599-0.88-6.351-2.632c-3.512-3.512-3.512-9.198,0-12.701l31.762-31.753 c3.503-3.512,9.189-3.512,12.701,0c3.503,3.503,3.503,9.198,0,12.701l-31.762,31.753C419.893,107.15,417.593,108.03,415.294,108.03 "/> <g> <path style="fill:#F3D55B;" d="M350.316,470.864c0,4.958-4.024,8.982-8.982,8.982c-4.958,0-8.982-4.024-8.982-8.982 c0-4.958,4.024-8.982,8.982-8.982C346.292,461.881,350.316,465.906,350.316,470.864"/> <path style="fill:#F3D55B;" d="M35.93,264.267c0,4.958-4.024,8.982-8.982,8.982s-8.982-4.024-8.982-8.982s4.024-8.982,8.982-8.982 S35.93,259.309,35.93,264.267"/> <path style="fill:#F3D55B;" d="M296.421,30.724c0,4.958-4.024,8.982-8.982,8.982s-8.982-4.024-8.982-8.982 s4.024-8.982,8.982-8.982S296.421,25.765,296.421,30.724"/> <path style="fill:#F3D55B;" d="M494.035,219.355c0,4.958-4.024,8.982-8.982,8.982c-4.958,0-8.982-4.024-8.982-8.982 s4.024-8.982,8.982-8.982C490.011,210.373,494.035,214.397,494.035,219.355"/> <path style="fill:#F3D55B;" d="M39.649,452.899l14.246,14.246l14.246-14.246l-14.246-14.246L39.649,452.899z M53.896,492.548 l-39.649-39.649l39.649-39.649l39.649,39.649L53.896,492.548z"/> <path style="fill:#F3D55B;" d="M53.895,434.934c-4.958,0-8.982-4.024-8.982-8.982v-17.965c0-4.958,4.024-8.982,8.982-8.982 s8.982,4.024,8.982,8.982v17.965C62.877,430.91,58.853,434.934,53.895,434.934"/> <path style="fill:#F3D55B;" d="M98.807,461.881H80.842c-4.958,0-8.982-4.024-8.982-8.982c0-4.958,4.024-8.982,8.982-8.982h17.965 c4.958,0,8.982,4.024,8.982,8.982C107.789,457.857,103.765,461.881,98.807,461.881"/> <path style="fill:#F3D55B;" d="M53.895,506.794c-4.958,0-8.982-4.024-8.982-8.982v-17.965c0-4.958,4.024-8.982,8.982-8.982 s8.982,4.024,8.982,8.982v17.965C62.877,502.77,58.853,506.794,53.895,506.794"/> <path style="fill:#F3D55B;" d="M26.947,461.881H8.982c-4.958,0-8.982-4.024-8.982-8.982c0-4.958,4.024-8.982,8.982-8.982h17.965 c4.958,0,8.982,4.024,8.982,8.982C35.93,457.857,31.906,461.881,26.947,461.881"/> </g> <g> <polygon style="fill:#434C6D;" points="104.069,118.104 34.203,86.342 116.77,3.775 186.636,35.537 "/> <polygon style="fill:#434C6D;" points="205.694,219.729 135.828,187.967 218.395,105.4 288.26,137.162 "/> </g> <polygon style="fill:#8697CB;" points="104.069,118.104 135.831,187.97 218.398,105.403 186.636,35.537 "/> <path style="fill:#E8EDEE;" d="M241.687,319.238l-46.583-46.583c-11.686-11.686-11.686-30.648,0-42.343l97.397-97.388 c11.695-11.695,30.648-11.695,42.343,0l46.574,46.583c11.695,11.686,11.695,30.648,0,42.334l-97.388,97.397 C272.335,330.933,253.383,330.933,241.687,319.238"/> <g> <polygon style="fill:#434C6D;" points="396.24,410.275 428.002,480.141 510.569,397.574 478.807,327.709 "/> <polygon style="fill:#434C6D;" points="294.616,308.651 326.378,378.516 408.944,295.949 377.182,226.084 "/> </g> <polygon style="fill:#8697CB;" points="396.24,410.275 326.375,378.514 408.942,295.947 478.807,327.709 "/> <path style="fill:#B0B6BB;" d="M358.131,41.885c-31.573,31.573-31.573,82.755,0,114.329s82.755,31.573,114.329,0L358.131,41.885z"/> <path style="fill:#434C6D;" d="M485.162,67.291c-10.527,10.527-27.585,10.527-38.113,0c-10.518-10.527-10.518-27.585,0-38.113 c10.527-10.518,27.585-10.518,38.113,0C495.69,39.706,495.69,56.764,485.162,67.291"/> <g> <polygon style="fill:#B0B6BB;" points="237.451,391.221 123.123,276.892 186.637,264.191 250.152,327.706 "/> <polygon style="fill:#B0B6BB;" points="262.858,289.596 224.746,251.484 313.672,162.566 351.784,200.67 "/> </g> <polygon style="fill:#FFFFFF;" points="300.969,251.486 262.856,213.374 275.557,200.673 313.67,238.785 "/> <g> <path style="fill:#E8EDEE;" d="M212.043,340.408l-12.701,12.701l12.701,12.701l12.701-12.701c3.512-3.512,3.512-9.198,0-12.701 C221.233,336.896,215.547,336.896,212.043,340.408"/> <path style="fill:#E8EDEE;" d="M186.64,315.004l-12.701,12.701l0,0l12.701,12.701l0,0l12.701-12.701 c3.512-3.512,3.512-9.189,0-12.701C195.829,311.492,190.152,311.492,186.64,315.004"/> <path style="fill:#E8EDEE;" d="M161.231,315L161.231,315l12.701-12.701c3.512-3.512,3.512-9.198,0-12.701 c-3.503-3.512-9.189-3.512-12.701,0l-12.701,12.701l0,0L161.231,315z"/> </g> </g> </g>
</svg>